<?xml version="1.0" encoding="UTF-8"?>
<!DOCTYPE svg PUBLIC "-//W3C//DTD SVG 1.1//EN" "http://www.w3.org/Graphics/SVG/1.1/DTD/svg11.dtd">
<svg xmlns="http://www.w3.org/2000/svg" version="1.1" width="1024px" height="1024px" style="shape-rendering:geometricPrecision; text-rendering:geometricPrecision; image-rendering:optimizeQuality; fill-rule:evenodd; clip-rule:evenodd" xmlns:xlink="http://www.w3.org/1999/xlink">
<g><path style="opacity:1" fill="#fefefe" d="M -0.5,-0.5 C 340.833,-0.5 682.167,-0.5 1023.5,-0.5C 1023.5,340.833 1023.5,682.167 1023.5,1023.5C 682.167,1023.5 340.833,1023.5 -0.5,1023.5C -0.5,682.167 -0.5,340.833 -0.5,-0.5 Z"/></g>
<g><path style="opacity:1" fill="#0b4cfc" d="M 247.5,426.5 C 253.646,417.404 257.646,407.404 259.5,396.5C 237.796,396.018 224.129,396.352 218.5,397.5C 218.698,399.575 218.865,401.575 219,403.5C 217.167,404.667 215.333,405.833 213.5,407C 214.833,407.333 216.167,407.667 217.5,408C 216.473,410.909 215.14,412.909 213.5,414C 215.686,420.042 216.02,421.542 214.5,418.5C 213.448,418.351 212.448,418.517 211.5,419C 212.458,420.147 212.125,421.147 210.5,422C 214.272,422.611 214.272,423.611 210.5,425C 211.174,426.751 211.507,428.417 211.5,430C 210.975,430.692 210.308,431.192 209.5,431.5C 208.549,430.674 207.549,430.508 206.5,431C 209.468,433.584 209.135,435.584 205.5,437C 205.833,438.667 206.167,440.333 206.5,442C 205.624,443.585 204.291,444.585 202.5,445C 203.167,446.333 203.833,447.667 204.5,449C 207.036,449.186 209.369,449.686 211.5,450.5C 199.003,450.718 186.669,452.218 174.5,455C 168.197,457.16 162.531,460.327 157.5,464.5C 155.914,463.852 154.247,463.352 152.5,463C 153.299,461.251 152.632,459.918 150.5,459C 153.022,457.314 152.689,455.981 149.5,455C 150.328,454.085 151.328,453.419 152.5,453C 151.13,451.559 150.13,449.892 149.5,448C 148.311,442.856 148.311,437.689 149.5,432.5C 149.154,431.304 148.654,431.304 148,432.5C 147.383,431.551 147.549,430.718 148.5,430C 147.833,429.667 147.167,429.333 146.5,429C 146.057,427.482 146.724,426.315 148.5,425.5C 147.96,424.252 147.293,423.085 146.5,422C 147.167,421.667 147.833,421.333 148.5,421C 145.527,419.776 144.86,417.776 146.5,415C 147.9,413.562 149.567,412.729 151.5,412.5C 151.719,411.325 151.386,410.325 150.5,409.5C 149.583,410.127 148.583,410.461 147.5,410.5C 158.568,401.811 171.235,396.645 185.5,395C 210.846,394.627 236.18,395.127 261.5,396.5C 259.457,405.255 256.29,413.588 252,421.5C 250.951,423.618 249.451,425.284 247.5,426.5 Z"/></g>
<g><path style="opacity:1" fill="#105cfa" d="M 247.5,426.5 C 238.491,438.819 226.491,446.819 211.5,450.5C 209.369,449.686 207.036,449.186 204.5,449C 203.833,447.667 203.167,446.333 202.5,445C 204.291,444.585 205.624,443.585 206.5,442C 206.167,440.333 205.833,438.667 205.5,437C 209.135,435.584 209.468,433.584 206.5,431C 207.549,430.508 208.549,430.674 209.5,431.5C 210.308,431.192 210.975,430.692 211.5,430C 211.507,428.417 211.174,426.751 210.5,425C 214.272,423.611 214.272,422.611 210.5,422C 212.125,421.147 212.458,420.147 211.5,419C 212.448,418.517 213.448,418.351 214.5,418.5C 216.02,421.542 215.686,420.042 213.5,414C 215.14,412.909 216.473,410.909 217.5,408C 216.167,407.667 214.833,407.333 213.5,407C 215.333,405.833 217.167,404.667 219,403.5C 218.865,401.575 218.698,399.575 218.5,397.5C 224.129,396.352 237.796,396.018 259.5,396.5C 257.646,407.404 253.646,417.404 247.5,426.5 Z"/></g>
<g><path style="opacity:1" fill="#010235" d="M 419.5,438.5 C 418.69,434.597 419.024,430.597 420.5,426.5C 394.509,425.5 368.509,425.167 342.5,425.5C 342.854,427.767 342.521,429.101 341.5,429.5C 341.5,427.833 341.5,426.167 341.5,424.5C 368.167,424.5 394.833,424.5 421.5,424.5C 420.833,429.167 420.167,433.833 419.5,438.5 Z"/></g>
<g><path style="opacity:1" fill="#023470" d="M 419.5,438.5 C 418.402,443.092 417.735,447.759 417.5,452.5C 401.256,452.175 385.089,452.509 369,453.5C 367.538,463.444 365.705,473.278 363.5,483C 378.167,483.333 392.833,483.667 407.5,484C 405.419,492.393 403.752,500.893 402.5,509.5C 388.167,509.5 373.833,509.5 359.5,509.5C 356.241,528.13 353.241,546.796 350.5,565.5C 339.5,565.5 328.5,565.5 317.5,565.5C 325.14,519.98 333.14,474.647 341.5,429.5C 342.521,429.101 342.854,427.767 342.5,425.5C 368.509,425.167 394.509,425.5 420.5,426.5C 419.024,430.597 418.69,434.597 419.5,438.5 Z"/></g>
<g><path style="opacity:1" fill="#0b44eb" d="M 157.5,464.5 C 147.686,474.122 141.52,485.789 139,499.5C 137.84,504.792 137.007,510.125 136.5,515.5C 135.366,513.034 135.199,510.367 136,507.5C 137.167,502.331 138.334,497.164 139.5,492C 138.264,491.674 136.93,490.674 135.5,489C 135.937,486.783 135.937,484.449 135.5,482C 137.017,480.221 137.851,480.721 138,483.5C 139.334,482.122 139.501,480.789 138.5,479.5C 138.414,478.504 138.748,477.671 139.5,477C 137.109,476.309 137.109,475.309 139.5,474C 137.992,472.493 136.659,470.827 135.5,469C 136.738,469.077 137.738,468.911 138.5,468.5C 137.5,467.167 136.5,465.833 135.5,464.5C 136.093,462.618 136.76,460.785 137.5,459C 136.672,458.085 135.672,457.419 134.5,457C 135.167,456.667 135.833,456.333 136.5,456C 133.894,453.469 133.56,450.969 135.5,448.5C 134.313,447.481 133.313,446.314 132.5,445C 133.641,444.259 133.641,443.425 132.5,442.5C 131.726,441.289 130.893,441.289 130,442.5C 129.833,442 129.667,441.5 129.5,441C 131.037,440.617 132.37,439.784 133.5,438.5C 132.365,436.201 131.032,434.034 129.5,432C 130.451,431.282 130.617,430.449 130,429.5C 125.671,436.569 121.837,443.236 118.5,449.5C 123.583,432.964 133.249,419.964 147.5,410.5C 148.583,410.461 149.583,410.127 150.5,409.5C 151.386,410.325 151.719,411.325 151.5,412.5C 149.567,412.729 147.9,413.562 146.5,415C 144.86,417.776 145.527,419.776 148.5,421C 147.833,421.333 147.167,421.667 146.5,422C 147.293,423.085 147.96,424.252 148.5,425.5C 146.724,426.315 146.057,427.482 146.5,429C 147.167,429.333 147.833,429.667 148.5,430C 147.549,430.718 147.383,431.551 148,432.5C 148.654,431.304 149.154,431.304 149.5,432.5C 148.311,437.689 148.311,442.856 149.5,448C 150.13,449.892 151.13,451.559 152.5,453C 151.328,453.419 150.328,454.085 149.5,455C 152.689,455.981 153.022,457.314 150.5,459C 152.632,459.918 153.299,461.251 152.5,463C 154.247,463.352 155.914,463.852 157.5,464.5 Z"/></g>
<g><path style="opacity:1" fill="#1866da" d="M 288.5,454.5 C 287.974,450.395 286.808,446.395 285,442.5C 281.195,448.461 276.695,453.794 271.5,458.5C 275.56,453.402 279.393,448.068 283,442.5C 284.608,439.618 285.941,436.618 287,433.5C 288.384,440.411 288.884,447.411 288.5,454.5 Z"/></g>
<g><path style="opacity:1" fill="#0a45dd" d="M 138.5,479.5 C 137.603,478.402 136.77,478.402 136,479.5C 134.981,478.313 133.814,477.313 132.5,476.5C 131.332,478.397 129.665,478.564 127.5,477C 128.654,476.086 128.487,475.253 127,474.5C 124.266,475.362 124.099,476.195 126.5,477C 124.956,478.187 123.289,478.52 121.5,478C 122.706,476.982 122.373,476.482 120.5,476.5C 118.944,477.547 117.277,478.214 115.5,478.5C 114.656,481.27 113.989,485.937 113.5,492.5C 113.334,484.16 113.5,475.827 114,467.5C 114.693,461.172 116.193,455.172 118.5,449.5C 121.837,443.236 125.671,436.569 130,429.5C 130.617,430.449 130.451,431.282 129.5,432C 131.032,434.034 132.365,436.201 133.5,438.5C 132.37,439.784 131.037,440.617 129.5,441C 129.667,441.5 129.833,442 130,442.5C 130.893,441.289 131.726,441.289 132.5,442.5C 133.641,443.425 133.641,444.259 132.5,445C 133.313,446.314 134.313,447.481 135.5,448.5C 133.56,450.969 133.894,453.469 136.5,456C 135.833,456.333 135.167,456.667 134.5,457C 135.672,457.419 136.672,458.085 137.5,459C 136.76,460.785 136.093,462.618 135.5,464.5C 136.5,465.833 137.5,467.167 138.5,468.5C 137.738,468.911 136.738,469.077 135.5,469C 136.659,470.827 137.992,472.493 139.5,474C 137.109,475.309 137.109,476.309 139.5,477C 138.748,477.671 138.414,478.504 138.5,479.5 Z"/></g>
<g><path style="opacity:1" fill="#01376e" d="M 502.5,469.5 C 500.956,469.297 499.622,468.63 498.5,467.5C 496.533,468.682 495.2,468.015 494.5,465.5C 492.299,467.056 492.299,468.223 494.5,469C 493.376,469.249 492.376,469.749 491.5,470.5C 492.083,472.548 492.083,474.381 491.5,476C 493.422,477.46 494.089,479.127 493.5,481C 495.301,481.317 495.634,481.984 494.5,483C 495.167,484.667 495.833,486.333 496.5,488C 495.833,488.333 495.167,488.667 494.5,489C 495.711,490.113 495.711,491.28 494.5,492.5C 495.167,493.167 495.833,493.833 496.5,494.5C 495.233,496.371 495.233,498.204 496.5,500C 495.874,500.75 495.374,501.584 495,502.5C 493.216,499.997 491.549,499.997 490,502.5C 489.5,502 489,501.5 488.5,501C 489.743,499.846 490.743,498.512 491.5,497C 490.256,496.544 489.423,497.044 489,498.5C 488.667,497.5 488.333,496.5 488,495.5C 487.776,503.543 487.109,511.543 486,519.5C 485.148,523.264 483.648,526.597 481.5,529.5C 485.785,518.903 487.285,507.903 486,496.5C 482.979,485.566 475.812,481.066 464.5,483C 454.719,486.114 448.219,492.614 445,502.5C 440.519,514.589 440.519,526.589 445,538.5C 450.319,544.167 456.819,546.001 464.5,544C 471.168,541.493 476.502,537.327 480.5,531.5C 479.972,532.847 479.805,534.181 480,535.5C 481.907,535.579 483.907,535.246 486,534.5C 487.368,535.993 487.535,537.493 486.5,539C 488.564,540.018 488.898,541.351 487.5,543C 489.164,544.767 490.331,544.267 491,541.5C 491.5,542.5 492,543.5 492.5,544.5C 490.687,545.635 488.854,546.635 487,547.5C 486.386,549.313 486.719,549.647 488,548.5C 488.5,549 489,549.5 489.5,550C 485.435,550.717 481.769,552.383 478.5,555C 480.405,555.826 480.739,556.993 479.5,558.5C 478.914,558.291 478.414,557.957 478,557.5C 477.821,555.576 477.654,553.909 477.5,552.5C 476.5,553 475.5,553.5 474.5,554C 475.167,555.667 475.833,557.333 476.5,559C 473.565,558.668 470.565,559.168 467.5,560.5C 464.809,558.748 464.142,559.248 465.5,562C 463.164,563.27 463.164,564.77 465.5,566.5C 468.399,565.358 471.399,564.692 474.5,564.5C 454.963,571.894 437.13,568.894 421,555.5C 411.84,543.72 408.506,530.387 411,515.5C 418.076,478.215 440.576,459.715 478.5,460C 487.744,460.352 495.744,463.519 502.5,469.5 Z"/></g>
<g><path style="opacity:1" fill="#03956f" d="M 788.5,466.5 C 785.188,465.18 781.855,463.846 778.5,462.5C 772.495,463.168 766.661,463.168 761,462.5C 760.727,464.329 759.893,465.829 758.5,467C 759.481,471.707 758.648,472.207 756,468.5C 755.683,470.301 755.016,470.634 754,469.5C 753.508,470.549 753.674,471.549 754.5,472.5C 750.639,473.598 750.639,474.431 754.5,475C 752.833,475.333 751.167,475.667 749.5,476C 751.679,476.442 752.345,477.442 751.5,479C 752.227,480.399 752.727,481.899 753,483.5C 754.287,479.457 756.454,478.791 759.5,481.5C 763.095,480.104 766.429,480.438 769.5,482.5C 753.069,481.267 742.736,488.6 738.5,504.5C 737.209,505.542 737.209,506.708 738.5,508C 737.328,508.419 736.328,509.085 735.5,510C 736.245,512.571 736.579,515.071 736.5,517.5C 734.862,521.98 734.029,526.647 734,531.5C 733.25,532.126 732.416,532.626 731.5,533C 732.214,534.343 731.88,535.676 730.5,537C 731.731,538.183 731.731,539.349 730.5,540.5C 729.549,539.674 728.549,539.508 727.5,540C 727.833,540.333 728.167,540.667 728.5,541C 725.335,543.442 725.001,546.109 727.5,549C 725.663,552.367 723.329,554.534 720.5,555.5C 721.262,555.911 722.262,556.077 723.5,556C 721.875,556.853 721.542,557.853 722.5,559C 726.23,561.193 729.897,563.36 733.5,565.5C 719.314,560.811 710.481,551.144 707,536.5C 702.487,508.017 711.653,485.183 734.5,468C 750.066,458.771 766.399,457.104 783.5,463C 785.584,463.697 787.251,464.864 788.5,466.5 Z"/></g>
<g><path style="opacity:1" fill="#02133d" d="M 565.5,480.5 C 565.034,475.242 565.7,469.909 567.5,464.5C 557.926,462.907 548.592,463.24 539.5,465.5C 539.5,464.5 539.5,463.5 539.5,462.5C 549.167,462.5 558.833,462.5 568.5,462.5C 567.716,468.539 566.716,474.539 565.5,480.5 Z"/></g>
<g><path style="opacity:1" fill="#026f6e" d="M 669.5,459.5 C 665.353,460.325 661.019,460.825 656.5,461C 655.953,461.925 655.287,462.758 654.5,463.5C 653.549,462.674 652.549,462.508 651.5,463C 651.833,463.333 652.167,463.667 652.5,464C 651.069,464.465 649.903,465.299 649,466.5C 648.275,468.949 647.275,471.283 646,473.5C 645.667,473.167 645.333,472.833 645,472.5C 644.333,473.833 644.333,475.167 645,476.5C 645.556,474.405 646.056,474.238 646.5,476C 645.453,477.63 644.453,479.296 643.5,481C 645.154,482.827 645.988,484.66 646,486.5C 649.993,483.391 654.493,481.891 659.5,482C 658.584,482.278 657.918,482.778 657.5,483.5C 645.735,485.76 638.235,492.76 635,504.5C 631.808,515.229 631.808,525.895 635,536.5C 637.086,539.094 639.586,541.094 642.5,542.5C 642.44,543.043 642.107,543.376 641.5,543.5C 634.222,539.933 633.555,541.433 639.5,548C 637.913,548.862 636.246,549.529 634.5,550C 635.833,550.333 637.167,550.667 638.5,551C 636.221,551.473 634.221,552.473 632.5,554C 633.5,554.333 634.5,554.667 635.5,555C 631.458,563.411 634.124,567.578 643.5,567.5C 647.118,566.654 650.785,566.32 654.5,566.5C 636.404,570.86 620.904,566.194 608,552.5C 601.319,541.76 598.985,530.094 601,517.5C 607.663,479.083 630.496,459.75 669.5,459.5 Z"/></g>
<g><path style="opacity:1" fill="#017b6f" d="M 669.5,459.5 C 678.84,459.938 686.84,463.271 693.5,469.5C 689.91,468.182 686.576,466.348 683.5,464C 682.207,463.51 680.873,463.343 679.5,463.5C 679.5,464.5 679.5,465.5 679.5,466.5C 680.552,466.351 681.552,466.517 682.5,467C 681.033,468.098 680.199,469.598 680,471.5C 678.667,474.167 677.333,474.167 676,471.5C 675.833,471.833 675.667,472.167 675.5,472.5C 676.641,473.425 676.641,474.259 675.5,475C 676.76,476.113 677.927,476.28 679,475.5C 679.781,476.944 679.614,478.277 678.5,479.5C 677.188,478.54 675.854,478.706 674.5,480C 675.34,481.666 674.84,481.833 673,480.5C 674.241,481.999 674.741,483.665 674.5,485.5C 673.635,485.564 672.635,485.897 671.5,486.5C 670.614,487.325 670.281,488.325 670.5,489.5C 667.474,484.836 663.14,482.836 657.5,483.5C 657.918,482.778 658.584,482.278 659.5,482C 654.493,481.891 649.993,483.391 646,486.5C 645.988,484.66 645.154,482.827 643.5,481C 644.453,479.296 645.453,477.63 646.5,476C 646.056,474.238 645.556,474.405 645,476.5C 644.333,475.167 644.333,473.833 645,472.5C 645.333,472.833 645.667,473.167 646,473.5C 647.275,471.283 648.275,468.949 649,466.5C 649.903,465.299 651.069,464.465 652.5,464C 652.167,463.667 651.833,463.333 651.5,463C 652.549,462.508 653.549,462.674 654.5,463.5C 655.287,462.758 655.953,461.925 656.5,461C 661.019,460.825 665.353,460.325 669.5,459.5 Z"/></g>
<g><path style="opacity:1" fill="#01a56f" d="M 788.5,466.5 C 798.145,472.429 803.811,481.096 805.5,492.5C 804.814,502.059 803.814,511.726 802.5,521.5C 785.868,520.543 769.201,520.21 752.5,520.5C 753.735,518.227 753.402,516.394 751.5,515C 753.589,513.829 755.589,512.496 757.5,511C 755.088,508.965 755.755,507.965 759.5,508C 758.833,507.667 758.167,507.333 757.5,507C 764.747,506.815 771.913,506.315 779,505.5C 779.809,500.733 779.642,496.733 778.5,493.5C 777.166,488.513 774.166,484.847 769.5,482.5C 766.429,480.438 763.095,480.104 759.5,481.5C 756.454,478.791 754.287,479.457 753,483.5C 752.727,481.899 752.227,480.399 751.5,479C 752.345,477.442 751.679,476.442 749.5,476C 751.167,475.667 752.833,475.333 754.5,475C 750.639,474.431 750.639,473.598 754.5,472.5C 753.674,471.549 753.508,470.549 754,469.5C 755.016,470.634 755.683,470.301 756,468.5C 758.648,472.207 759.481,471.707 758.5,467C 759.893,465.829 760.727,464.329 761,462.5C 766.661,463.168 772.495,463.168 778.5,462.5C 781.855,463.846 785.188,465.18 788.5,466.5 Z"/></g>
<g><path style="opacity:1" fill="#01466e" d="M 551.5,563.5 C 542.25,564.472 532.917,564.805 523.5,564.5C 523.784,562.585 523.451,560.919 522.5,559.5C 527.754,527.965 533.421,496.631 539.5,465.5C 548.592,463.24 557.926,462.907 567.5,464.5C 565.7,469.909 565.034,475.242 565.5,480.5C 569.234,476.249 573.568,471.749 578.5,467C 586.739,460.2 596.072,458.033 606.5,460.5C 604.617,470.464 602.951,480.464 601.5,490.5C 581.884,484.89 568.717,491.557 562,510.5C 558.482,528.3 554.982,545.966 551.5,563.5 Z"/></g>
<g><path style="opacity:1" fill="#013d6e" d="M 502.5,469.5 C 510.026,475.194 514.526,482.86 516,492.5C 519.644,524.046 507.811,547.546 480.5,563C 478.564,563.813 476.564,564.313 474.5,564.5C 471.399,564.692 468.399,565.358 465.5,566.5C 463.164,564.77 463.164,563.27 465.5,562C 464.142,559.248 464.809,558.748 467.5,560.5C 470.565,559.168 473.565,558.668 476.5,559C 475.833,557.333 475.167,555.667 474.5,554C 475.5,553.5 476.5,553 477.5,552.5C 477.654,553.909 477.821,555.576 478,557.5C 478.414,557.957 478.914,558.291 479.5,558.5C 480.739,556.993 480.405,555.826 478.5,555C 481.769,552.383 485.435,550.717 489.5,550C 489,549.5 488.5,549 488,548.5C 486.719,549.647 486.386,549.313 487,547.5C 488.854,546.635 490.687,545.635 492.5,544.5C 492,543.5 491.5,542.5 491,541.5C 490.331,544.267 489.164,544.767 487.5,543C 488.898,541.351 488.564,540.018 486.5,539C 487.535,537.493 487.368,535.993 486,534.5C 483.907,535.246 481.907,535.579 480,535.5C 479.805,534.181 479.972,532.847 480.5,531.5C 480.328,530.508 480.662,529.842 481.5,529.5C 483.648,526.597 485.148,523.264 486,519.5C 487.109,511.543 487.776,503.543 488,495.5C 488.333,496.5 488.667,497.5 489,498.5C 489.423,497.044 490.256,496.544 491.5,497C 490.743,498.512 489.743,499.846 488.5,501C 489,501.5 489.5,502 490,502.5C 491.549,499.997 493.216,499.997 495,502.5C 495.374,501.584 495.874,500.75 496.5,500C 495.233,498.204 495.233,496.371 496.5,494.5C 495.833,493.833 495.167,493.167 494.5,492.5C 495.711,491.28 495.711,490.113 494.5,489C 495.167,488.667 495.833,488.333 496.5,488C 495.833,486.333 495.167,484.667 494.5,483C 495.634,481.984 495.301,481.317 493.5,481C 494.089,479.127 493.422,477.46 491.5,476C 492.083,474.381 492.083,472.548 491.5,470.5C 492.376,469.749 493.376,469.249 494.5,469C 492.299,468.223 492.299,467.056 494.5,465.5C 495.2,468.015 496.533,468.682 498.5,467.5C 499.622,468.63 500.956,469.297 502.5,469.5 Z"/></g>
<g><path style="opacity:1" fill="#1486e1" d="M 288.5,454.5 C 285.744,487.222 269.744,510.722 240.5,525C 232.355,527.596 224.021,529.096 215.5,529.5C 212.375,528.521 209.042,528.187 205.5,528.5C 209.926,528.01 212.926,527.01 214.5,525.5C 214.693,521.551 215.193,521.551 216,525.5C 216.76,522.337 218.427,519.337 221,516.5C 221.853,514.875 222.853,514.542 224,515.5C 224.492,514.451 224.326,513.451 223.5,512.5C 225.901,510.869 227.734,508.202 229,504.5C 230.011,503.663 231.178,503.33 232.5,503.5C 233.052,501.669 233.052,500.003 232.5,498.5C 233.484,496.52 234.817,494.853 236.5,493.5C 235.833,493.167 235.167,492.833 234.5,492.5C 236.059,490.869 238.059,490.036 240.5,490C 239.672,489.085 238.672,488.419 237.5,488C 238.784,487.316 239.951,487.483 241,488.5C 241.617,487.551 241.451,486.718 240.5,486C 243.167,485 243.167,484 240.5,483C 242.058,480.946 244.058,479.446 246.5,478.5C 245.367,474.359 247.033,472.859 251.5,474C 252.694,478.404 254.027,478.237 255.5,473.5C 255.167,472.833 254.833,472.167 254.5,471.5C 257.077,470.057 259.41,468.39 261.5,466.5C 264.52,463.484 267.854,460.817 271.5,458.5C 276.695,453.794 281.195,448.461 285,442.5C 286.808,446.395 287.974,450.395 288.5,454.5 Z"/></g>
<g><path style="opacity:1" fill="#0d4dd9" d="M 138.5,479.5 C 139.501,480.789 139.334,482.122 138,483.5C 137.851,480.721 137.017,480.221 135.5,482C 135.937,484.449 135.937,486.783 135.5,489C 136.93,490.674 138.264,491.674 139.5,492C 138.334,497.164 137.167,502.331 136,507.5C 135.199,510.367 135.366,513.034 136.5,515.5C 135.01,522.429 133.843,529.429 133,536.5C 121.884,523.931 115.384,509.264 113.5,492.5C 113.989,485.937 114.656,481.27 115.5,478.5C 117.277,478.214 118.944,477.547 120.5,476.5C 122.373,476.482 122.706,476.982 121.5,478C 123.289,478.52 124.956,478.187 126.5,477C 124.099,476.195 124.266,475.362 127,474.5C 128.487,475.253 128.654,476.086 127.5,477C 129.665,478.564 131.332,478.397 132.5,476.5C 133.814,477.313 134.981,478.313 136,479.5C 136.77,478.402 137.603,478.402 138.5,479.5 Z"/></g>
<g><path style="opacity:1" fill="#147fe9" d="M 261.5,466.5 C 259.41,468.39 257.077,470.057 254.5,471.5C 254.833,472.167 255.167,472.833 255.5,473.5C 254.027,478.237 252.694,478.404 251.5,474C 247.033,472.859 245.367,474.359 246.5,478.5C 244.058,479.446 242.058,480.946 240.5,483C 243.167,484 243.167,485 240.5,486C 241.451,486.718 241.617,487.551 241,488.5C 239.951,487.483 238.784,487.316 237.5,488C 238.672,488.419 239.672,489.085 240.5,490C 238.059,490.036 236.059,490.869 234.5,492.5C 235.167,492.833 235.833,493.167 236.5,493.5C 234.817,494.853 233.484,496.52 232.5,498.5C 233.052,500.003 233.052,501.669 232.5,503.5C 231.178,503.33 230.011,503.663 229,504.5C 227.734,508.202 225.901,510.869 223.5,512.5C 224.326,513.451 224.492,514.451 224,515.5C 222.853,514.542 221.853,514.875 221,516.5C 218.427,519.337 216.76,522.337 216,525.5C 215.193,521.551 214.693,521.551 214.5,525.5C 212.926,527.01 209.926,528.01 205.5,528.5C 199.687,528.656 199.354,527.989 204.5,526.5C 205.7,524.235 207.367,522.402 209.5,521C 205.728,520.389 205.728,519.389 209.5,518C 208.289,517.107 208.289,516.274 209.5,515.5C 210.192,516.025 210.692,516.692 211,517.5C 211.651,515.765 211.485,514.098 210.5,512.5C 213.415,511.296 215.581,509.296 217,506.5C 217.333,506.833 217.667,507.167 218,507.5C 218.684,506.216 218.517,505.049 217.5,504C 218.624,503.751 219.624,503.251 220.5,502.5C 219.234,499.219 220.234,496.719 223.5,495C 222.833,494.667 222.167,494.333 221.5,494C 223.64,493.027 225.307,491.527 226.5,489.5C 225.833,489.167 225.167,488.833 224.5,488.5C 227.028,487.184 227.028,486.017 224.5,485C 226.294,483.319 226.794,481.486 226,479.5C 226.654,480.696 227.154,480.696 227.5,479.5C 226.624,478.749 225.624,478.249 224.5,478C 226.5,477.667 228.5,477.333 230.5,477C 229.906,476.536 229.239,476.369 228.5,476.5C 240.008,475.201 251.008,471.868 261.5,466.5 Z"/></g>
<g><path style="opacity:1" fill="#03866f" d="M 693.5,469.5 C 700.6,475.371 704.267,483.038 704.5,492.5C 693.404,493.986 682.404,495.986 671.5,498.5C 671.296,495.482 670.963,492.482 670.5,489.5C 670.281,488.325 670.614,487.325 671.5,486.5C 672.635,485.897 673.635,485.564 674.5,485.5C 674.741,483.665 674.241,481.999 673,480.5C 674.84,481.833 675.34,481.666 674.5,480C 675.854,478.706 677.188,478.54 678.5,479.5C 679.614,478.277 679.781,476.944 679,475.5C 677.927,476.28 676.76,476.113 675.5,475C 676.641,474.259 676.641,473.425 675.5,472.5C 675.667,472.167 675.833,471.833 676,471.5C 677.333,474.167 678.667,474.167 680,471.5C 680.199,469.598 681.033,468.098 682.5,467C 681.552,466.517 680.552,466.351 679.5,466.5C 679.5,465.5 679.5,464.5 679.5,463.5C 680.873,463.343 682.207,463.51 683.5,464C 686.576,466.348 689.91,468.182 693.5,469.5 Z"/></g>
<g><path style="opacity:1" fill="#03ac6d" d="M 915.5,492.5 C 914.523,488.543 912.19,485.543 908.5,483.5C 907.167,484.167 905.833,484.833 904.5,485.5C 903.029,484.583 901.529,483.583 900,482.5C 898.148,484.23 898.314,485.396 900.5,486C 898.945,487.646 897.279,487.979 895.5,487C 896.357,487.689 897.023,488.522 897.5,489.5C 896.471,489.296 895.471,489.796 894.5,491C 894.833,491.333 895.167,491.667 895.5,492C 893.595,493.815 891.928,495.815 890.5,498C 890.747,499.813 891.08,501.647 891.5,503.5C 892.5,504.833 893.5,504.833 894.5,503.5C 895.833,504.5 895.833,505.5 894.5,506.5C 892.898,505.45 892.065,506.117 892,508.5C 891.667,508.167 891.333,507.833 891,507.5C 890,509.5 889,511.5 888,513.5C 887.667,518.5 887.333,523.5 887,528.5C 886.667,527.833 886.333,527.167 886,526.5C 883.96,528.37 882.127,530.37 880.5,532.5C 884.949,523.202 887.282,513.369 887.5,503C 884.481,482.865 873.814,477.532 855.5,487C 843.096,501.454 839.262,517.954 844,536.5C 848.961,543.55 855.795,546.216 864.5,544.5C 864.938,544.435 865.272,544.601 865.5,545C 863.881,546.923 862.048,547.423 860,546.5C 859.689,547.742 860.189,548.742 861.5,549.5C 860.282,549.109 859.448,549.776 859,551.5C 857.482,551.943 856.315,551.276 855.5,549.5C 856.397,549.331 857.397,548.998 858.5,548.5C 857.009,547.756 855.509,547.09 854,546.5C 853.667,547.167 853.333,547.833 853,548.5C 851.915,547.707 850.748,547.04 849.5,546.5C 848.813,548.274 847.98,549.941 847,551.5C 845.8,549.588 844.133,548.255 842,547.5C 840.166,551.064 840.999,553.064 844.5,553.5C 842.922,554.298 841.256,554.798 839.5,555C 840.967,556.098 841.801,557.598 842,559.5C 843,558.167 844,558.167 845,559.5C 845.333,558.833 845.667,558.167 846,557.5C 846.309,558.766 846.809,559.933 847.5,561C 847.167,561.333 846.833,561.667 846.5,562C 850.5,563.333 850.5,564.667 846.5,566C 850.091,566.789 853.591,566.622 857,565.5C 860.603,566.135 864.103,566.802 867.5,567.5C 828.649,571.149 810.149,553.483 812,514.5C 816.547,484.289 833.714,466.122 863.5,460C 883.174,456.772 899.007,462.939 911,478.5C 913.372,482.905 914.872,487.572 915.5,492.5 Z"/></g>
<g><path style="opacity:1" fill="#fdfdfd" d="M 481.5,529.5 C 480.662,529.842 480.328,530.508 480.5,531.5C 476.502,537.327 471.168,541.493 464.5,544C 456.819,546.001 450.319,544.167 445,538.5C 440.519,526.589 440.519,514.589 445,502.5C 448.219,492.614 454.719,486.114 464.5,483C 475.812,481.066 482.979,485.566 486,496.5C 487.285,507.903 485.785,518.903 481.5,529.5 Z"/></g>
<g><path style="opacity:1" fill="#fdfefe" d="M 769.5,482.5 C 774.166,484.847 777.166,488.513 778.5,493.5C 778.5,497.167 778.5,500.833 778.5,504.5C 765.167,504.5 751.833,504.5 738.5,504.5C 742.736,488.6 753.069,481.267 769.5,482.5 Z"/></g>
<g><path style="opacity:1" fill="#fcfefd" d="M 880.5,532.5 C 876.553,538.46 871.219,542.46 864.5,544.5C 855.795,546.216 848.961,543.55 844,536.5C 839.262,517.954 843.096,501.454 855.5,487C 873.814,477.532 884.481,482.865 887.5,503C 887.282,513.369 884.949,523.202 880.5,532.5 Z"/></g>
<g><path style="opacity:1" fill="#01b66c" d="M 915.5,492.5 C 920.102,520.195 911.102,542.362 888.5,559C 881.9,562.92 874.9,565.753 867.5,567.5C 864.103,566.802 860.603,566.135 857,565.5C 853.591,566.622 850.091,566.789 846.5,566C 850.5,564.667 850.5,563.333 846.5,562C 846.833,561.667 847.167,561.333 847.5,561C 846.809,559.933 846.309,558.766 846,557.5C 845.667,558.167 845.333,558.833 845,559.5C 844,558.167 843,558.167 842,559.5C 841.801,557.598 840.967,556.098 839.5,555C 841.256,554.798 842.922,554.298 844.5,553.5C 840.999,553.064 840.166,551.064 842,547.5C 844.133,548.255 845.8,549.588 847,551.5C 847.98,549.941 848.813,548.274 849.5,546.5C 850.748,547.04 851.915,547.707 853,548.5C 853.333,547.833 853.667,547.167 854,546.5C 855.509,547.09 857.009,547.756 858.5,548.5C 857.397,548.998 856.397,549.331 855.5,549.5C 856.315,551.276 857.482,551.943 859,551.5C 859.448,549.776 860.282,549.109 861.5,549.5C 860.189,548.742 859.689,547.742 860,546.5C 862.048,547.423 863.881,546.923 865.5,545C 865.272,544.601 864.938,544.435 864.5,544.5C 871.219,542.46 876.553,538.46 880.5,532.5C 882.127,530.37 883.96,528.37 886,526.5C 886.333,527.167 886.667,527.833 887,528.5C 887.333,523.5 887.667,518.5 888,513.5C 889,511.5 890,509.5 891,507.5C 891.333,507.833 891.667,508.167 892,508.5C 892.065,506.117 892.898,505.45 894.5,506.5C 895.833,505.5 895.833,504.5 894.5,503.5C 893.5,504.833 892.5,504.833 891.5,503.5C 891.08,501.647 890.747,499.813 890.5,498C 891.928,495.815 893.595,493.815 895.5,492C 895.167,491.667 894.833,491.333 894.5,491C 895.471,489.796 896.471,489.296 897.5,489.5C 897.023,488.522 896.357,487.689 895.5,487C 897.279,487.979 898.945,487.646 900.5,486C 898.314,485.396 898.148,484.23 900,482.5C 901.529,483.583 903.029,484.583 904.5,485.5C 905.833,484.833 907.167,484.167 908.5,483.5C 912.19,485.543 914.523,488.543 915.5,492.5 Z"/></g>
<g><path style="opacity:1" fill="#1159f1" d="M 201.5,477.5 C 212.167,477.833 212.167,478.167 201.5,478.5C 196.543,478.711 191.876,479.878 187.5,482C 188.466,484.933 188.466,487.599 187.5,490C 185.553,492.183 183.886,494.516 182.5,497C 183.634,498.016 183.301,498.683 181.5,499C 182.271,500.998 181.605,502.665 179.5,504C 180.337,505.011 180.67,506.178 180.5,507.5C 179.325,507.281 178.325,507.614 177.5,508.5C 177.746,509.773 177.746,510.94 177.5,512C 176.5,512.333 175.5,512.667 174.5,513C 174.833,513.333 175.167,513.667 175.5,514C 173.926,515.826 173.093,517.993 173,520.5C 171.488,519.743 170.154,518.743 169,517.5C 168.333,518.167 167.667,518.833 167,519.5C 166,518.167 165,518.167 164,519.5C 163.295,525.315 162.129,530.315 160.5,534.5C 160.7,518.645 164.866,503.979 173,490.5C 180.569,481.966 190.069,477.633 201.5,477.5 Z"/></g>
<g><path style="opacity:1" fill="#1274ee" d="M 201.5,477.5 C 210.318,476.507 219.318,476.173 228.5,476.5C 229.239,476.369 229.906,476.536 230.5,477C 228.5,477.333 226.5,477.667 224.5,478C 225.624,478.249 226.624,478.749 227.5,479.5C 227.154,480.696 226.654,480.696 226,479.5C 226.794,481.486 226.294,483.319 224.5,485C 227.028,486.017 227.028,487.184 224.5,488.5C 225.167,488.833 225.833,489.167 226.5,489.5C 225.307,491.527 223.64,493.027 221.5,494C 222.167,494.333 222.833,494.667 223.5,495C 220.234,496.719 219.234,499.219 220.5,502.5C 219.624,503.251 218.624,503.751 217.5,504C 218.517,505.049 218.684,506.216 218,507.5C 217.667,507.167 217.333,506.833 217,506.5C 215.581,509.296 213.415,511.296 210.5,512.5C 211.485,514.098 211.651,515.765 211,517.5C 210.692,516.692 210.192,516.025 209.5,515.5C 208.289,516.274 208.289,517.107 209.5,518C 205.728,519.389 205.728,520.389 209.5,521C 207.367,522.402 205.7,524.235 204.5,526.5C 199.354,527.989 199.687,528.656 205.5,528.5C 209.042,528.187 212.375,528.521 215.5,529.5C 207.073,529.284 198.74,529.95 190.5,531.5C 188.329,530.755 185.995,530.588 183.5,531C 185.051,528.178 187.051,525.678 189.5,523.5C 189.291,522.914 188.957,522.414 188.5,522C 189.641,520.383 190.474,518.55 191,516.5C 192.84,517.833 193.34,517.666 192.5,516C 193.167,514.667 194.167,513.667 195.5,513C 195.167,512.667 194.833,512.333 194.5,512C 196.107,510.951 196.773,509.451 196.5,507.5C 198.942,507.646 199.609,506.813 198.5,505C 200.342,502.457 202.509,500.29 205,498.5C 205.876,494.659 207.209,490.993 209,487.5C 209.333,488.167 209.667,488.833 210,489.5C 210.5,488.333 211.333,487.5 212.5,487C 211.338,485.173 211.672,483.506 213.5,482C 213.355,481.228 213.022,480.561 212.5,480C 209.901,479.231 207.401,479.398 205,480.5C 203.698,479.915 202.531,479.249 201.5,478.5C 212.167,478.167 212.167,477.833 201.5,477.5 Z"/></g>
<g><path style="opacity:1" fill="#1065ec" d="M 201.5,478.5 C 202.531,479.249 203.698,479.915 205,480.5C 207.401,479.398 209.901,479.231 212.5,480C 213.022,480.561 213.355,481.228 213.5,482C 211.672,483.506 211.338,485.173 212.5,487C 211.333,487.5 210.5,488.333 210,489.5C 209.667,488.833 209.333,488.167 209,487.5C 207.209,490.993 205.876,494.659 205,498.5C 202.509,500.29 200.342,502.457 198.5,505C 199.609,506.813 198.942,507.646 196.5,507.5C 196.773,509.451 196.107,510.951 194.5,512C 194.833,512.333 195.167,512.667 195.5,513C 194.167,513.667 193.167,514.667 192.5,516C 193.34,517.666 192.84,517.833 191,516.5C 190.474,518.55 189.641,520.383 188.5,522C 188.957,522.414 189.291,522.914 189.5,523.5C 187.051,525.678 185.051,528.178 183.5,531C 185.995,530.588 188.329,530.755 190.5,531.5C 178.899,533.625 169.566,539.292 162.5,548.5C 161.671,547.668 160.838,548.001 160,549.5C 160.571,545.019 160.405,540.685 159.5,536.5C 159.328,535.508 159.662,534.842 160.5,534.5C 162.129,530.315 163.295,525.315 164,519.5C 165,518.167 166,518.167 167,519.5C 167.667,518.833 168.333,518.167 169,517.5C 170.154,518.743 171.488,519.743 173,520.5C 173.093,517.993 173.926,515.826 175.5,514C 175.167,513.667 174.833,513.333 174.5,513C 175.5,512.667 176.5,512.333 177.5,512C 177.746,510.94 177.746,509.773 177.5,508.5C 178.325,507.614 179.325,507.281 180.5,507.5C 180.67,506.178 180.337,505.011 179.5,504C 181.605,502.665 182.271,500.998 181.5,499C 183.301,498.683 183.634,498.016 182.5,497C 183.886,494.516 185.553,492.183 187.5,490C 188.466,487.599 188.466,484.933 187.5,482C 191.876,479.878 196.543,478.711 201.5,478.5 Z"/></g>
<g><path style="opacity:1" fill="#089b6b" d="M 805.5,492.5 C 805.829,502.584 805.163,512.584 803.5,522.5C 780.836,522.026 758.169,521.693 735.5,521.5C 733.819,539.659 741.819,547.159 759.5,544C 765.145,542.181 770.145,539.348 774.5,535.5C 774.489,537.017 773.823,538.184 772.5,539C 767.7,542.549 762.366,545.049 756.5,546.5C 755.855,547.732 755.689,549.065 756,550.5C 755.282,549.549 754.449,549.383 753.5,550C 755.585,551.041 757.252,552.541 758.5,554.5C 757.312,554.307 755.978,554.807 754.5,556C 758.296,559.085 757.629,561.419 752.5,563C 753.973,563.71 754.64,564.876 754.5,566.5C 761.008,565.441 767.342,563.774 773.5,561.5C 763.578,566.785 752.911,568.952 741.5,568C 738.543,567.721 735.877,566.887 733.5,565.5C 729.897,563.36 726.23,561.193 722.5,559C 721.542,557.853 721.875,556.853 723.5,556C 722.262,556.077 721.262,555.911 720.5,555.5C 723.329,554.534 725.663,552.367 727.5,549C 725.001,546.109 725.335,543.442 728.5,541C 728.167,540.667 727.833,540.333 727.5,540C 728.549,539.508 729.549,539.674 730.5,540.5C 731.731,539.349 731.731,538.183 730.5,537C 731.88,535.676 732.214,534.343 731.5,533C 732.416,532.626 733.25,532.126 734,531.5C 734.029,526.647 734.862,521.98 736.5,517.5C 736.579,515.071 736.245,512.571 735.5,510C 736.328,509.085 737.328,508.419 738.5,508C 737.209,506.708 737.209,505.542 738.5,504.5C 751.833,504.5 765.167,504.5 778.5,504.5C 778.5,500.833 778.5,497.167 778.5,493.5C 779.642,496.733 779.809,500.733 779,505.5C 771.913,506.315 764.747,506.815 757.5,507C 758.167,507.333 758.833,507.667 759.5,508C 755.755,507.965 755.088,508.965 757.5,511C 755.589,512.496 753.589,513.829 751.5,515C 753.402,516.394 753.735,518.227 752.5,520.5C 769.201,520.21 785.868,520.543 802.5,521.5C 803.814,511.726 804.814,502.059 805.5,492.5 Z"/></g>
<g><path style="opacity:1" fill="#1d39db" d="M 159.5,536.5 C 160.405,540.685 160.571,545.019 160,549.5C 160.838,548.001 161.671,547.668 162.5,548.5C 160.832,550.34 159.332,552.34 158,554.5C 157.884,548.468 158.384,542.468 159.5,536.5 Z"/></g>
<g><path style="opacity:1" fill="#02a96f" d="M 773.5,561.5 C 767.342,563.774 761.008,565.441 754.5,566.5C 754.64,564.876 753.973,563.71 752.5,563C 757.629,561.419 758.296,559.085 754.5,556C 755.978,554.807 757.312,554.307 758.5,554.5C 757.252,552.541 755.585,551.041 753.5,550C 754.449,549.383 755.282,549.549 756,550.5C 755.689,549.065 755.855,547.732 756.5,546.5C 762.366,545.049 767.7,542.549 772.5,539C 773.823,538.184 774.489,537.017 774.5,535.5C 775.391,533.391 776.558,531.391 778,529.5C 784.433,533.633 790.599,538.133 796.5,543C 790.722,551.621 783.055,557.788 773.5,561.5 Z"/></g>
<g><path style="opacity:1" fill="#01846e" d="M 654.5,566.5 C 650.785,566.32 647.118,566.654 643.5,567.5C 634.124,567.578 631.458,563.411 635.5,555C 634.5,554.667 633.5,554.333 632.5,554C 634.221,552.473 636.221,551.473 638.5,551C 637.167,550.667 635.833,550.333 634.5,550C 636.246,549.529 637.913,548.862 639.5,548C 633.555,541.433 634.222,539.933 641.5,543.5C 642.107,543.376 642.44,543.043 642.5,542.5C 648.135,543.929 653.468,543.096 658.5,540C 662.156,536.037 665.322,531.87 668,527.5C 676.35,530.505 684.683,533.505 693,536.5C 687.98,549.521 678.813,558.688 665.5,564C 661.986,565.562 658.319,566.395 654.5,566.5 Z"/></g>
<g><path style="opacity:1" fill="#1493d3" d="M 219.5,551.5 C 218.435,552.865 216.435,553.698 213.5,554C 214.167,554.333 214.833,554.667 215.5,555C 214.207,555.49 212.873,555.657 211.5,555.5C 211.649,556.552 211.483,557.552 211,558.5C 209.745,556.406 207.912,555.406 205.5,555.5C 202.821,555.936 200.155,556.436 197.5,557C 198.938,557.219 200.271,557.719 201.5,558.5C 198.737,562.843 195.237,565.51 191,566.5C 189.632,567.993 189.465,569.493 190.5,571C 188.741,572.008 187.574,573.508 187,575.5C 186.692,574.692 186.192,574.025 185.5,573.5C 184.575,574.641 183.741,574.641 183,573.5C 182.581,574.672 181.915,575.672 181,576.5C 178.41,575.622 176.077,575.622 174,576.5C 173.517,577.448 173.351,578.448 173.5,579.5C 172.448,579.351 171.448,579.517 170.5,580C 168.83,582.559 166.497,584.225 163.5,585C 164.573,586.25 164.573,587.584 163.5,589C 161.655,591.603 159.488,593.103 157,593.5C 156.535,594.931 155.701,596.097 154.5,597C 154.833,597.333 155.167,597.667 155.5,598C 154.128,598.402 152.795,598.902 151.5,599.5C 150.808,598.975 150.308,598.308 150,597.5C 151.235,599.69 151.735,602.023 151.5,604.5C 149.182,605.652 147.348,607.319 146,609.5C 145.601,609.272 145.435,608.938 145.5,608.5C 147.694,592.951 154.027,579.451 164.5,568C 169.217,563.973 174.551,560.973 180.5,559C 193.423,556.069 206.423,553.569 219.5,551.5 Z"/></g>
<g><path style="opacity:1" fill="#010d39" d="M 522.5,559.5 C 523.451,560.919 523.784,562.585 523.5,564.5C 532.917,564.805 542.25,564.472 551.5,563.5C 541.889,565.474 531.889,566.141 521.5,565.5C 521.833,563.5 522.167,561.5 522.5,559.5 Z"/></g>
<g><path style="opacity:1" fill="#139ecf" d="M 207.5,595.5 C 208.279,593.287 208.279,590.787 207.5,588C 208.167,587.667 208.833,587.333 209.5,587C 208.954,584.98 207.787,583.147 206,581.5C 205.5,581.833 205,582.167 204.5,582.5C 205.82,585.057 204.987,586.724 202,587.5C 201.667,588.5 201.333,589.5 201,590.5C 200.033,587.095 198.2,586.595 195.5,589C 196.833,589.667 196.833,590.333 195.5,591C 193.765,591.651 192.098,591.485 190.5,590.5C 189.086,591.624 187.586,592.624 186,593.5C 185.667,593.167 185.333,592.833 185,592.5C 184.647,594.074 183.98,595.741 183,597.5C 180.235,598.597 178.569,600.597 178,603.5C 176.334,602.66 176.167,603.16 177.5,605C 176.256,605.456 175.423,604.956 175,603.5C 174.5,604.667 173.667,605.5 172.5,606C 173.167,606.333 173.833,606.667 174.5,607C 173.107,608.171 172.273,609.671 172,611.5C 168.593,609.298 165.926,606.964 164,604.5C 163.228,605.849 162.061,606.682 160.5,607C 162.125,607.853 162.458,608.853 161.5,610C 158.034,609.878 155.368,611.211 153.5,614C 156.167,614.667 156.167,615.333 153.5,616C 154.833,617.84 154.666,618.34 153,617.5C 152.026,619.878 151.359,619.544 151,616.5C 149.249,618.212 148.582,620.212 149,622.5C 149.75,623.126 150.584,623.626 151.5,624C 150.216,624.684 149.049,624.517 148,623.5C 147.5,624 147,624.5 146.5,625C 149.365,625.183 152.031,625.683 154.5,626.5C 149.519,627.332 144.519,627.498 139.5,627C 141.439,620.719 143.439,614.553 145.5,608.5C 145.435,608.938 145.601,609.272 146,609.5C 147.348,607.319 149.182,605.652 151.5,604.5C 151.735,602.023 151.235,599.69 150,597.5C 150.308,598.308 150.808,598.975 151.5,599.5C 152.795,598.902 154.128,598.402 155.5,598C 155.167,597.667 154.833,597.333 154.5,597C 155.701,596.097 156.535,594.931 157,593.5C 159.488,593.103 161.655,591.603 163.5,589C 164.573,587.584 164.573,586.25 163.5,585C 166.497,584.225 168.83,582.559 170.5,580C 171.448,579.517 172.448,579.351 173.5,579.5C 173.351,578.448 173.517,577.448 174,576.5C 176.077,575.622 178.41,575.622 181,576.5C 181.915,575.672 182.581,574.672 183,573.5C 183.741,574.641 184.575,574.641 185.5,573.5C 186.192,574.025 186.692,574.692 187,575.5C 187.574,573.508 188.741,572.008 190.5,571C 189.465,569.493 189.632,567.993 191,566.5C 195.237,565.51 198.737,562.843 201.5,558.5C 200.271,557.719 198.938,557.219 197.5,557C 200.155,556.436 202.821,555.936 205.5,555.5C 207.912,555.406 209.745,556.406 211,558.5C 211.483,557.552 211.649,556.552 211.5,555.5C 212.873,555.657 214.207,555.49 215.5,555C 214.833,554.667 214.167,554.333 213.5,554C 216.435,553.698 218.435,552.865 219.5,551.5C 221.667,550.731 223.834,549.731 226,548.5C 223.858,565.762 217.691,581.428 207.5,595.5 Z"/></g>
<g><path style="opacity:1" fill="#12a3c6" d="M 207.5,595.5 C 193.581,612.054 175.914,622.388 154.5,626.5C 152.031,625.683 149.365,625.183 146.5,625C 147,624.5 147.5,624 148,623.5C 149.049,624.517 150.216,624.684 151.5,624C 150.584,623.626 149.75,623.126 149,622.5C 148.582,620.212 149.249,618.212 151,616.5C 151.359,619.544 152.026,619.878 153,617.5C 154.666,618.34 154.833,617.84 153.5,616C 156.167,615.333 156.167,614.667 153.5,614C 155.368,611.211 158.034,609.878 161.5,610C 162.458,608.853 162.125,607.853 160.5,607C 162.061,606.682 163.228,605.849 164,604.5C 165.926,606.964 168.593,609.298 172,611.5C 172.273,609.671 173.107,608.171 174.5,607C 173.833,606.667 173.167,606.333 172.5,606C 173.667,605.5 174.5,604.667 175,603.5C 175.423,604.956 176.256,605.456 177.5,605C 176.167,603.16 176.334,602.66 178,603.5C 178.569,600.597 180.235,598.597 183,597.5C 183.98,595.741 184.647,594.074 185,592.5C 185.333,592.833 185.667,593.167 186,593.5C 187.586,592.624 189.086,591.624 190.5,590.5C 192.098,591.485 193.765,591.651 195.5,591C 196.833,590.333 196.833,589.667 195.5,589C 198.2,586.595 200.033,587.095 201,590.5C 201.333,589.5 201.667,588.5 202,587.5C 204.987,586.724 205.82,585.057 204.5,582.5C 205,582.167 205.5,581.833 206,581.5C 207.787,583.147 208.954,584.98 209.5,587C 208.833,587.333 208.167,587.667 207.5,588C 208.279,590.787 208.279,593.287 207.5,595.5 Z"/></g>
</svg>
